<svg xmlns="http://www.w3.org/2000/svg" width="160" height="16.001" viewBox="1141.244 56 160 16.001"><g data-name="Social"><g data-name="web"><path d="M1287.644 58.4c1.467-1.6 3.333-2.4 5.6-2.4 2.267 0 4.133.8 5.6 2.4 1.6 1.467 2.4 3.333 2.4 5.6 0 2.267-.8 4.133-2.4 5.6-1.467 1.6-3.333 2.4-5.6 2.4-2.267 0-4.133-.8-5.6-2.4-1.467-1.6-2.4-3.333-2.4-5.6 0-2.267.8-4.133 2.4-5.6Zm6.667 12c.533 0 1.2-.4 2-1.2.533-.933.933-1.867.933-2.8 0-.667-.267-1.2-.667-1.6-.533-.533-1.066-.8-1.733-.8h-1.333c-.4 0-.8-.133-1.2-.267-.267-.266-.4-.533-.4-.933 0-.267.133-.4.266-.533.134-.134.4-.267.534-.267.133 0 .533.133.666.4.267.133.4.267.534.267.133 0 .4 0 .533-.134.133-.133.133-.4.133-.533 0-.4-.266-.933-.666-1.333.4-.8.666-1.6.666-2.534a.287.287 0 0 0-.266-.266c-.4-.134-.8-.267-1.067-.267-1.467.133-2.533.4-3.467 1.067-.8.666-1.2 1.6-1.2 2.666 0 1.067.4 1.867 1.067 2.534a3.643 3.643 0 0 0 2.533 1.066v.534c0 .533.134.933.534 1.333.266.4.666.667 1.2.8V70c0 .133 0 .133.133.267.133.133.133.133.267.133Z" fill="#fff" fill-rule="evenodd" data-name="Path 4"/></g><g data-name="instagram"><path d="M1149.244 57.422c2.133 0 2.4 0 3.2.09.8 0 1.244.177 1.511.266.356.178.622.355.889.622s.444.533.622.889c.089.267.267.711.267 1.511 0 .8.089 1.067.089 3.2s0 2.4-.09 3.2c0 .8-.177 1.244-.266 1.511a3.192 3.192 0 0 1-.622.889 3.192 3.192 0 0 1-.889.622c-.267.09-.711.267-1.511.267-.8 0-1.067.089-3.2.089s-2.4 0-3.2-.09c-.8 0-1.245-.177-1.511-.266a3.192 3.192 0 0 1-.89-.622 3.192 3.192 0 0 1-.621-.889c-.09-.267-.267-.711-.267-1.511 0-.8-.089-1.067-.089-3.2s0-2.4.089-3.2c0-.8.178-1.244.267-1.511.177-.356.355-.622.622-.889.267-.356.533-.533.889-.622.266-.09.71-.267 1.51-.267.8-.089 1.068-.089 3.2-.089m0-1.422c-2.132 0-2.488 0-3.288.089-.889 0-1.422.178-1.956.355a3.48 3.48 0 0 0-1.422.89 3.48 3.48 0 0 0-.889 1.422c-.266.533-.355 1.066-.355 1.955-.09.8-.09 1.156-.09 3.289s0 2.489.09 3.289c0 .889.178 1.422.355 1.955.178.534.445.978.89 1.423a3.48 3.48 0 0 0 1.421.889c.534.177 1.067.355 1.956.355.8.089 1.156.089 3.289.089s2.489 0 3.289-.089c.889 0 1.422-.178 1.955-.355a3.48 3.48 0 0 0 1.423-.89 3.48 3.48 0 0 0 .888-1.422c.178-.533.356-1.066.356-1.955s.089-1.156.089-3.289 0-2.489-.089-3.289c0-.889-.178-1.422-.356-1.955a3.48 3.48 0 0 0-.888-1.423 3.48 3.48 0 0 0-1.423-.889c-.533-.177-1.066-.355-1.955-.355-.8-.089-1.156-.089-3.29-.089m0 3.911c-2.31 0-4.088 1.778-4.088 4.089a4.078 4.078 0 0 0 4.089 4.089 4.078 4.078 0 0 0 4.089-4.089 4.078 4.078 0 0 0-4.09-4.089m0 6.756c-1.51 0-2.666-1.156-2.666-2.667s1.156-2.667 2.667-2.667 2.667 1.156 2.667 2.667-1.156 2.667-2.667 2.667m4.267-7.911a.986.986 0 0 0-.978.977c0 .534.444.978.978.978a.986.986 0 0 0 .977-.978.986.986 0 0 0-.977-.977" fill="#fff" fill-rule="evenodd" data-name="Path 3"/></g><g data-name="twitter"><path d="M1194.31 70.977c6.045 0 9.334-4.978 9.334-9.333v-.445c.622-.444 1.155-1.066 1.6-1.689a7.379 7.379 0 0 1-1.867.534c.711-.445 1.156-1.067 1.422-1.778a8.153 8.153 0 0 1-2.044.8 3.175 3.175 0 0 0-2.4-1.067c-1.778 0-3.289 1.511-3.289 3.29 0 .266 0 .532.089.71-2.756-.178-5.156-1.422-6.756-3.466-.266.444-.444 1.066-.444 1.688 0 1.156.622 2.134 1.422 2.756-.533 0-1.066-.178-1.51-.444 0 1.6 1.155 2.933 2.666 3.2-.267.088-.534.088-.89.088-.177 0-.444 0-.621-.088.444 1.333 1.6 2.222 3.11 2.31-1.155.89-2.577 1.423-4.088 1.423-.267 0-.533 0-.8-.089 1.422 1.067 3.2 1.6 5.067 1.6" fill="#fff" fill-rule="evenodd" data-name="Path 2"/></g><g data-name="facebook"><path d="M1246.666 72v-7.288h2.489l.356-2.845h-2.845V60.09c0-.8.267-1.423 1.422-1.423h1.511V56.09c-.355 0-1.244-.09-2.222-.09-2.133 0-3.644 1.334-3.644 3.734v2.133h-2.49v2.845h2.49V72h2.933Z" fill="#fff" fill-rule="evenodd" data-name="Path 1"/></g></g></svg>